# xmcd CD database file
#
# Track frame offsets:
#	150
#	25504
#	44110
#	60297
#	80007
#	99383
#	113900
#	135112
#	150505
#	170363
#
# Disc length: 2472 seconds
#
# Revision: 1
# Processed by: cddbd v1.5.2PL0 Copyright (c) Steve Scherf et al.
# Submitted via: CDex 1.82
#
DISCID=6e09a60a
DTITLE=Robert Krestan a Druha trava - Marcipan z Toleda
DYEAR=2011
DGENRE=Bluegrass
TTITLE0=Rada snu (Series of dreams)
TTITLE1=Zas padne noc
TTITLE2=Mississippi
TTITLE3=Sto druhu sede
TTITLE4=Rano
TTITLE5=Blazni a toulavi psi
TTITLE6=Kouzelnice
TTITLE7=Mojo
TTITLE8=Kazde zrnko pisku (Every grain of sand)
TTITLE9=Marcipan z Toleda
EXTD=YEAR: 2011
EXTT0=
EXTT1=
EXTT2=
EXTT3=
EXTT4=
EXTT5=
EXTT6=
EXTT7=
EXTT8=
EXTT9=
PLAYORDER=
